<mxfile host="app.diagrams.net" agent="Mozilla/5.0 (Windows NT 10.0; Win64; x64) AppleWebKit/537.36 (KHTML, like Gecko) Chrome/138.0.0.0 Safari/537.36" version="27.2.0">
  <diagram name="ページ1" id="e4d3R8pThOpwjFLqMaBg">
    <mxGraphModel dx="2066" dy="1109" grid="1" gridSize="10" guides="1" tooltips="1" connect="1" arrows="1" fold="1" page="1" pageScale="1" pageWidth="827" pageHeight="1169" background="light-dark(#E6EEF3,#E6EEF3)" math="0" shadow="0">
      <root>
        <mxCell id="0" />
        <mxCell id="1" parent="0" />
        <mxCell id="zsU3p8TbrbCi66kmZD97-1" value="L2スイッチ&lt;br&gt;（物理）" style="rounded=0;whiteSpace=wrap;html=1;" vertex="1" parent="1">
          <mxGeometry x="350" y="120" width="120" height="60" as="geometry" />
        </mxCell>
        <mxCell id="zsU3p8TbrbCi66kmZD97-3" value="クラスタ構成図&lt;br&gt;ESXiホスト5台" style="text;html=1;align=center;verticalAlign=middle;whiteSpace=wrap;rounded=0;" vertex="1" parent="1">
          <mxGeometry x="20" y="10" width="160" height="40" as="geometry" />
        </mxCell>
        <mxCell id="zsU3p8TbrbCi66kmZD97-4" value="NIC&lt;br&gt;仮想NIC" style="rounded=0;whiteSpace=wrap;html=1;" vertex="1" parent="1">
          <mxGeometry x="140" y="240" width="70" height="40" as="geometry" />
        </mxCell>
        <mxCell id="zsU3p8TbrbCi66kmZD97-9" value="ESXi01" style="rounded=0;whiteSpace=wrap;html=1;" vertex="1" parent="1">
          <mxGeometry x="140" y="340" width="70" height="50" as="geometry" />
        </mxCell>
        <mxCell id="zsU3p8TbrbCi66kmZD97-15" value="" style="endArrow=classic;startArrow=classic;html=1;rounded=0;exitX=0.25;exitY=0;exitDx=0;exitDy=0;entryX=0.25;entryY=1;entryDx=0;entryDy=0;" edge="1" parent="1">
          <mxGeometry width="50" height="50" relative="1" as="geometry">
            <mxPoint x="160" y="340" as="sourcePoint" />
            <mxPoint x="160" y="280" as="targetPoint" />
          </mxGeometry>
        </mxCell>
        <mxCell id="zsU3p8TbrbCi66kmZD97-18" value="" style="endArrow=classic;startArrow=classic;html=1;rounded=0;entryX=0.5;entryY=1;entryDx=0;entryDy=0;exitX=0.5;exitY=0;exitDx=0;exitDy=0;" edge="1" parent="1" source="zsU3p8TbrbCi66kmZD97-4" target="zsU3p8TbrbCi66kmZD97-1">
          <mxGeometry width="50" height="50" relative="1" as="geometry">
            <mxPoint x="100" y="230" as="sourcePoint" />
            <mxPoint x="130" y="190" as="targetPoint" />
          </mxGeometry>
        </mxCell>
        <mxCell id="zsU3p8TbrbCi66kmZD97-20" value="" style="endArrow=classic;startArrow=classic;html=1;rounded=0;exitX=0.25;exitY=0;exitDx=0;exitDy=0;entryX=0.25;entryY=1;entryDx=0;entryDy=0;" edge="1" parent="1">
          <mxGeometry width="50" height="50" relative="1" as="geometry">
            <mxPoint x="190" y="340" as="sourcePoint" />
            <mxPoint x="190" y="280" as="targetPoint" />
          </mxGeometry>
        </mxCell>
        <mxCell id="zsU3p8TbrbCi66kmZD97-22" value="" style="endArrow=classic;startArrow=classic;html=1;rounded=0;exitX=0.5;exitY=0;exitDx=0;exitDy=0;" edge="1" parent="1" source="zsU3p8TbrbCi66kmZD97-1">
          <mxGeometry width="50" height="50" relative="1" as="geometry">
            <mxPoint x="364" y="110" as="sourcePoint" />
            <mxPoint x="410" y="60" as="targetPoint" />
          </mxGeometry>
        </mxCell>
        <mxCell id="zsU3p8TbrbCi66kmZD97-23" value="L3層" style="text;html=1;align=center;verticalAlign=middle;whiteSpace=wrap;rounded=0;" vertex="1" parent="1">
          <mxGeometry x="355" y="30" width="110" height="30" as="geometry" />
        </mxCell>
        <mxCell id="zsU3p8TbrbCi66kmZD97-24" value="NIC&lt;br&gt;仮想NIC" style="rounded=0;whiteSpace=wrap;html=1;" vertex="1" parent="1">
          <mxGeometry x="260" y="240" width="70" height="40" as="geometry" />
        </mxCell>
        <mxCell id="zsU3p8TbrbCi66kmZD97-25" value="ESXi02" style="rounded=0;whiteSpace=wrap;html=1;" vertex="1" parent="1">
          <mxGeometry x="260" y="340" width="70" height="50" as="geometry" />
        </mxCell>
        <mxCell id="zsU3p8TbrbCi66kmZD97-26" value="" style="endArrow=classic;startArrow=classic;html=1;rounded=0;exitX=0.25;exitY=0;exitDx=0;exitDy=0;entryX=0.25;entryY=1;entryDx=0;entryDy=0;" edge="1" parent="1">
          <mxGeometry width="50" height="50" relative="1" as="geometry">
            <mxPoint x="280" y="340" as="sourcePoint" />
            <mxPoint x="280" y="280" as="targetPoint" />
          </mxGeometry>
        </mxCell>
        <mxCell id="zsU3p8TbrbCi66kmZD97-27" value="" style="endArrow=classic;startArrow=classic;html=1;rounded=0;exitX=0.25;exitY=0;exitDx=0;exitDy=0;entryX=0.25;entryY=1;entryDx=0;entryDy=0;" edge="1" parent="1">
          <mxGeometry width="50" height="50" relative="1" as="geometry">
            <mxPoint x="310" y="340" as="sourcePoint" />
            <mxPoint x="310" y="280" as="targetPoint" />
          </mxGeometry>
        </mxCell>
        <mxCell id="zsU3p8TbrbCi66kmZD97-28" value="NIC&lt;br&gt;仮想NIC" style="rounded=0;whiteSpace=wrap;html=1;" vertex="1" parent="1">
          <mxGeometry x="375" y="240" width="70" height="40" as="geometry" />
        </mxCell>
        <mxCell id="zsU3p8TbrbCi66kmZD97-29" value="ESXi03" style="rounded=0;whiteSpace=wrap;html=1;" vertex="1" parent="1">
          <mxGeometry x="375" y="340" width="70" height="50" as="geometry" />
        </mxCell>
        <mxCell id="zsU3p8TbrbCi66kmZD97-30" value="" style="endArrow=classic;startArrow=classic;html=1;rounded=0;exitX=0.25;exitY=0;exitDx=0;exitDy=0;entryX=0.25;entryY=1;entryDx=0;entryDy=0;" edge="1" parent="1">
          <mxGeometry width="50" height="50" relative="1" as="geometry">
            <mxPoint x="395" y="340" as="sourcePoint" />
            <mxPoint x="395" y="280" as="targetPoint" />
          </mxGeometry>
        </mxCell>
        <mxCell id="zsU3p8TbrbCi66kmZD97-31" value="" style="endArrow=classic;startArrow=classic;html=1;rounded=0;exitX=0.25;exitY=0;exitDx=0;exitDy=0;entryX=0.25;entryY=1;entryDx=0;entryDy=0;" edge="1" parent="1">
          <mxGeometry width="50" height="50" relative="1" as="geometry">
            <mxPoint x="425" y="340" as="sourcePoint" />
            <mxPoint x="425" y="280" as="targetPoint" />
          </mxGeometry>
        </mxCell>
        <mxCell id="zsU3p8TbrbCi66kmZD97-32" value="NIC&lt;br&gt;仮想NIC" style="rounded=0;whiteSpace=wrap;html=1;" vertex="1" parent="1">
          <mxGeometry x="490" y="240" width="70" height="40" as="geometry" />
        </mxCell>
        <mxCell id="zsU3p8TbrbCi66kmZD97-33" value="ESXi04" style="rounded=0;whiteSpace=wrap;html=1;" vertex="1" parent="1">
          <mxGeometry x="490" y="340" width="70" height="50" as="geometry" />
        </mxCell>
        <mxCell id="zsU3p8TbrbCi66kmZD97-34" value="" style="endArrow=classic;startArrow=classic;html=1;rounded=0;exitX=0.25;exitY=0;exitDx=0;exitDy=0;entryX=0.25;entryY=1;entryDx=0;entryDy=0;" edge="1" parent="1">
          <mxGeometry width="50" height="50" relative="1" as="geometry">
            <mxPoint x="510" y="340" as="sourcePoint" />
            <mxPoint x="510" y="280" as="targetPoint" />
          </mxGeometry>
        </mxCell>
        <mxCell id="zsU3p8TbrbCi66kmZD97-35" value="" style="endArrow=classic;startArrow=classic;html=1;rounded=0;exitX=0.25;exitY=0;exitDx=0;exitDy=0;entryX=0.25;entryY=1;entryDx=0;entryDy=0;" edge="1" parent="1">
          <mxGeometry width="50" height="50" relative="1" as="geometry">
            <mxPoint x="540" y="340" as="sourcePoint" />
            <mxPoint x="540" y="280" as="targetPoint" />
          </mxGeometry>
        </mxCell>
        <mxCell id="zsU3p8TbrbCi66kmZD97-36" value="NIC&lt;br&gt;仮想NIC" style="rounded=0;whiteSpace=wrap;html=1;" vertex="1" parent="1">
          <mxGeometry x="600" y="240" width="70" height="40" as="geometry" />
        </mxCell>
        <mxCell id="zsU3p8TbrbCi66kmZD97-37" value="ESXi05" style="rounded=0;whiteSpace=wrap;html=1;" vertex="1" parent="1">
          <mxGeometry x="600" y="340" width="70" height="50" as="geometry" />
        </mxCell>
        <mxCell id="zsU3p8TbrbCi66kmZD97-38" value="" style="endArrow=classic;startArrow=classic;html=1;rounded=0;exitX=0.25;exitY=0;exitDx=0;exitDy=0;entryX=0.25;entryY=1;entryDx=0;entryDy=0;" edge="1" parent="1">
          <mxGeometry width="50" height="50" relative="1" as="geometry">
            <mxPoint x="620" y="340" as="sourcePoint" />
            <mxPoint x="620" y="280" as="targetPoint" />
          </mxGeometry>
        </mxCell>
        <mxCell id="zsU3p8TbrbCi66kmZD97-39" value="" style="endArrow=classic;startArrow=classic;html=1;rounded=0;exitX=0.25;exitY=0;exitDx=0;exitDy=0;entryX=0.25;entryY=1;entryDx=0;entryDy=0;" edge="1" parent="1">
          <mxGeometry width="50" height="50" relative="1" as="geometry">
            <mxPoint x="650" y="340" as="sourcePoint" />
            <mxPoint x="650" y="280" as="targetPoint" />
          </mxGeometry>
        </mxCell>
        <mxCell id="zsU3p8TbrbCi66kmZD97-40" value="" style="endArrow=classic;startArrow=classic;html=1;rounded=0;exitX=0.5;exitY=0;exitDx=0;exitDy=0;" edge="1" parent="1" source="zsU3p8TbrbCi66kmZD97-24">
          <mxGeometry width="50" height="50" relative="1" as="geometry">
            <mxPoint x="364" y="230" as="sourcePoint" />
            <mxPoint x="414" y="180" as="targetPoint" />
          </mxGeometry>
        </mxCell>
        <mxCell id="zsU3p8TbrbCi66kmZD97-41" value="" style="endArrow=classic;startArrow=classic;html=1;rounded=0;exitX=0.5;exitY=0;exitDx=0;exitDy=0;entryX=0.5;entryY=1;entryDx=0;entryDy=0;" edge="1" parent="1" source="zsU3p8TbrbCi66kmZD97-28" target="zsU3p8TbrbCi66kmZD97-1">
          <mxGeometry width="50" height="50" relative="1" as="geometry">
            <mxPoint x="470" y="250" as="sourcePoint" />
            <mxPoint x="579" y="190" as="targetPoint" />
          </mxGeometry>
        </mxCell>
        <mxCell id="zsU3p8TbrbCi66kmZD97-42" value="" style="endArrow=classic;startArrow=classic;html=1;rounded=0;exitX=0.5;exitY=0;exitDx=0;exitDy=0;" edge="1" parent="1" source="zsU3p8TbrbCi66kmZD97-32">
          <mxGeometry width="50" height="50" relative="1" as="geometry">
            <mxPoint x="500" y="220" as="sourcePoint" />
            <mxPoint x="410" y="180" as="targetPoint" />
          </mxGeometry>
        </mxCell>
        <mxCell id="zsU3p8TbrbCi66kmZD97-43" value="" style="endArrow=classic;startArrow=classic;html=1;rounded=0;exitX=0.5;exitY=0;exitDx=0;exitDy=0;" edge="1" parent="1" source="zsU3p8TbrbCi66kmZD97-36">
          <mxGeometry width="50" height="50" relative="1" as="geometry">
            <mxPoint x="725" y="230" as="sourcePoint" />
            <mxPoint x="410" y="180" as="targetPoint" />
          </mxGeometry>
        </mxCell>
        <mxCell id="zsU3p8TbrbCi66kmZD97-44" value="仮想マシン&lt;br&gt;Windows&lt;br&gt;Linux&lt;br&gt;VCSA3" style="whiteSpace=wrap;html=1;aspect=fixed;" vertex="1" parent="1">
          <mxGeometry x="370" y="520" width="80" height="80" as="geometry" />
        </mxCell>
        <mxCell id="zsU3p8TbrbCi66kmZD97-45" value="仮想マシン&lt;br&gt;Windows&lt;br&gt;Linux&lt;br&gt;VCSA2" style="whiteSpace=wrap;html=1;aspect=fixed;" vertex="1" parent="1">
          <mxGeometry x="250" y="520" width="80" height="80" as="geometry" />
        </mxCell>
        <mxCell id="zsU3p8TbrbCi66kmZD97-46" value="仮想マシン&lt;br&gt;Windows&lt;br&gt;Linux&lt;br&gt;VCSA1" style="whiteSpace=wrap;html=1;aspect=fixed;" vertex="1" parent="1">
          <mxGeometry x="130" y="520" width="80" height="80" as="geometry" />
        </mxCell>
        <mxCell id="zsU3p8TbrbCi66kmZD97-47" value="仮想マシン&lt;br&gt;Windows&lt;br&gt;Linux" style="whiteSpace=wrap;html=1;aspect=fixed;" vertex="1" parent="1">
          <mxGeometry x="485" y="520" width="80" height="80" as="geometry" />
        </mxCell>
        <mxCell id="zsU3p8TbrbCi66kmZD97-48" value="予備リソース" style="whiteSpace=wrap;html=1;aspect=fixed;" vertex="1" parent="1">
          <mxGeometry x="595" y="520" width="80" height="80" as="geometry" />
        </mxCell>
        <mxCell id="zsU3p8TbrbCi66kmZD97-49" value="nicのポート二つに対してセグメントを一つ割り当てVLANで通信を分離し、ネットワークの冗長化を図っている&lt;div&gt;&lt;br&gt;&lt;div&gt;&lt;br&gt;&lt;/div&gt;&lt;/div&gt;" style="text;html=1;align=center;verticalAlign=middle;whiteSpace=wrap;rounded=0;" vertex="1" parent="1">
          <mxGeometry x="10" y="250" width="110" height="130" as="geometry" />
        </mxCell>
        <mxCell id="zsU3p8TbrbCi66kmZD97-50" value="仮想スイッチ" style="rounded=0;whiteSpace=wrap;html=1;" vertex="1" parent="1">
          <mxGeometry x="130" y="440" width="90" height="30" as="geometry" />
        </mxCell>
        <mxCell id="zsU3p8TbrbCi66kmZD97-51" value="仮想スイッチ" style="rounded=0;whiteSpace=wrap;html=1;" vertex="1" parent="1">
          <mxGeometry x="250" y="440" width="90" height="30" as="geometry" />
        </mxCell>
        <mxCell id="zsU3p8TbrbCi66kmZD97-52" value="仮想スイッチ" style="rounded=0;whiteSpace=wrap;html=1;" vertex="1" parent="1">
          <mxGeometry x="365" y="440" width="90" height="30" as="geometry" />
        </mxCell>
        <mxCell id="zsU3p8TbrbCi66kmZD97-53" value="仮想スイッチ" style="rounded=0;whiteSpace=wrap;html=1;" vertex="1" parent="1">
          <mxGeometry x="480" y="440" width="90" height="30" as="geometry" />
        </mxCell>
        <mxCell id="zsU3p8TbrbCi66kmZD97-54" value="仮想スイッチ" style="rounded=0;whiteSpace=wrap;html=1;" vertex="1" parent="1">
          <mxGeometry x="590" y="440" width="90" height="30" as="geometry" />
        </mxCell>
        <mxCell id="zsU3p8TbrbCi66kmZD97-57" value="" style="endArrow=classic;startArrow=classic;html=1;rounded=0;exitX=0.5;exitY=0;exitDx=0;exitDy=0;entryX=0.429;entryY=1;entryDx=0;entryDy=0;entryPerimeter=0;" edge="1" parent="1">
          <mxGeometry width="50" height="50" relative="1" as="geometry">
            <mxPoint x="294.5" y="440" as="sourcePoint" />
            <mxPoint x="294.5" y="390" as="targetPoint" />
          </mxGeometry>
        </mxCell>
        <mxCell id="zsU3p8TbrbCi66kmZD97-58" value="" style="endArrow=classic;startArrow=classic;html=1;rounded=0;exitX=0.5;exitY=0;exitDx=0;exitDy=0;entryX=0.429;entryY=1;entryDx=0;entryDy=0;entryPerimeter=0;" edge="1" parent="1">
          <mxGeometry width="50" height="50" relative="1" as="geometry">
            <mxPoint x="409.5" y="440" as="sourcePoint" />
            <mxPoint x="409.5" y="390" as="targetPoint" />
          </mxGeometry>
        </mxCell>
        <mxCell id="zsU3p8TbrbCi66kmZD97-59" value="" style="endArrow=classic;startArrow=classic;html=1;rounded=0;exitX=0.5;exitY=0;exitDx=0;exitDy=0;entryX=0.429;entryY=1;entryDx=0;entryDy=0;entryPerimeter=0;" edge="1" parent="1">
          <mxGeometry width="50" height="50" relative="1" as="geometry">
            <mxPoint x="520" y="440" as="sourcePoint" />
            <mxPoint x="520" y="390" as="targetPoint" />
          </mxGeometry>
        </mxCell>
        <mxCell id="zsU3p8TbrbCi66kmZD97-60" value="" style="endArrow=classic;startArrow=classic;html=1;rounded=0;exitX=0.5;exitY=0;exitDx=0;exitDy=0;entryX=0.429;entryY=1;entryDx=0;entryDy=0;entryPerimeter=0;" edge="1" parent="1">
          <mxGeometry width="50" height="50" relative="1" as="geometry">
            <mxPoint x="634.5" y="440" as="sourcePoint" />
            <mxPoint x="634.5" y="390" as="targetPoint" />
          </mxGeometry>
        </mxCell>
        <mxCell id="zsU3p8TbrbCi66kmZD97-62" value="" style="endArrow=classic;startArrow=classic;html=1;rounded=0;exitX=0.5;exitY=0;exitDx=0;exitDy=0;entryX=0.429;entryY=1;entryDx=0;entryDy=0;entryPerimeter=0;" edge="1" parent="1">
          <mxGeometry width="50" height="50" relative="1" as="geometry">
            <mxPoint x="174.5" y="440" as="sourcePoint" />
            <mxPoint x="174.5" y="390" as="targetPoint" />
          </mxGeometry>
        </mxCell>
        <mxCell id="zsU3p8TbrbCi66kmZD97-64" value="SANストレージ" style="rounded=0;whiteSpace=wrap;html=1;" vertex="1" parent="1">
          <mxGeometry x="130" y="730" width="200" height="180" as="geometry" />
        </mxCell>
        <mxCell id="zsU3p8TbrbCi66kmZD97-65" value="SANストレージ" style="rounded=0;whiteSpace=wrap;html=1;" vertex="1" parent="1">
          <mxGeometry x="475" y="730" width="200" height="180" as="geometry" />
        </mxCell>
        <mxCell id="zsU3p8TbrbCi66kmZD97-66" value="" style="endArrow=classic;startArrow=classic;html=1;rounded=0;exitX=0.5;exitY=0;exitDx=0;exitDy=0;" edge="1" parent="1" source="zsU3p8TbrbCi66kmZD97-65">
          <mxGeometry width="50" height="50" relative="1" as="geometry">
            <mxPoint x="590" y="650" as="sourcePoint" />
            <mxPoint x="640" y="600" as="targetPoint" />
          </mxGeometry>
        </mxCell>
        <mxCell id="zsU3p8TbrbCi66kmZD97-67" value="" style="endArrow=classic;startArrow=classic;html=1;rounded=0;exitX=0.5;exitY=0;exitDx=0;exitDy=0;" edge="1" parent="1" source="zsU3p8TbrbCi66kmZD97-64">
          <mxGeometry width="50" height="50" relative="1" as="geometry">
            <mxPoint x="590" y="650" as="sourcePoint" />
            <mxPoint x="640" y="600" as="targetPoint" />
          </mxGeometry>
        </mxCell>
        <mxCell id="zsU3p8TbrbCi66kmZD97-68" value="" style="endArrow=classic;startArrow=classic;html=1;rounded=0;entryX=0.5;entryY=1;entryDx=0;entryDy=0;exitX=0.5;exitY=0;exitDx=0;exitDy=0;" edge="1" parent="1" source="zsU3p8TbrbCi66kmZD97-64" target="zsU3p8TbrbCi66kmZD97-46">
          <mxGeometry width="50" height="50" relative="1" as="geometry">
            <mxPoint x="160" y="670" as="sourcePoint" />
            <mxPoint x="210" y="620" as="targetPoint" />
          </mxGeometry>
        </mxCell>
        <mxCell id="zsU3p8TbrbCi66kmZD97-69" value="" style="endArrow=classic;startArrow=classic;html=1;rounded=0;entryX=0.5;entryY=1;entryDx=0;entryDy=0;exitX=0.5;exitY=0;exitDx=0;exitDy=0;" edge="1" parent="1" target="zsU3p8TbrbCi66kmZD97-46">
          <mxGeometry width="50" height="50" relative="1" as="geometry">
            <mxPoint x="580" y="730" as="sourcePoint" />
            <mxPoint x="520" y="600" as="targetPoint" />
          </mxGeometry>
        </mxCell>
        <mxCell id="zsU3p8TbrbCi66kmZD97-70" value="" style="endArrow=classic;startArrow=classic;html=1;rounded=0;entryX=0.5;entryY=1;entryDx=0;entryDy=0;" edge="1" parent="1" target="zsU3p8TbrbCi66kmZD97-45">
          <mxGeometry width="50" height="50" relative="1" as="geometry">
            <mxPoint x="230" y="728" as="sourcePoint" />
            <mxPoint x="390" y="720" as="targetPoint" />
          </mxGeometry>
        </mxCell>
        <mxCell id="zsU3p8TbrbCi66kmZD97-71" value="" style="endArrow=classic;startArrow=classic;html=1;rounded=0;entryX=0.5;entryY=1;entryDx=0;entryDy=0;" edge="1" parent="1" target="zsU3p8TbrbCi66kmZD97-45">
          <mxGeometry width="50" height="50" relative="1" as="geometry">
            <mxPoint x="570" y="730" as="sourcePoint" />
            <mxPoint x="470" y="800" as="targetPoint" />
          </mxGeometry>
        </mxCell>
        <mxCell id="zsU3p8TbrbCi66kmZD97-72" value="" style="endArrow=classic;startArrow=classic;html=1;rounded=0;entryX=0.5;entryY=1;entryDx=0;entryDy=0;" edge="1" parent="1" target="zsU3p8TbrbCi66kmZD97-44">
          <mxGeometry width="50" height="50" relative="1" as="geometry">
            <mxPoint x="570" y="730" as="sourcePoint" />
            <mxPoint x="400" y="750" as="targetPoint" />
          </mxGeometry>
        </mxCell>
        <mxCell id="zsU3p8TbrbCi66kmZD97-73" value="" style="endArrow=classic;startArrow=classic;html=1;rounded=0;entryX=0.5;entryY=1;entryDx=0;entryDy=0;exitX=0.5;exitY=0;exitDx=0;exitDy=0;" edge="1" parent="1" source="zsU3p8TbrbCi66kmZD97-64" target="zsU3p8TbrbCi66kmZD97-44">
          <mxGeometry width="50" height="50" relative="1" as="geometry">
            <mxPoint x="494" y="990" as="sourcePoint" />
            <mxPoint x="334" y="680" as="targetPoint" />
          </mxGeometry>
        </mxCell>
        <mxCell id="zsU3p8TbrbCi66kmZD97-74" value="" style="endArrow=classic;startArrow=classic;html=1;rounded=0;entryX=0.5;entryY=1;entryDx=0;entryDy=0;exitX=0.5;exitY=0;exitDx=0;exitDy=0;" edge="1" parent="1" source="zsU3p8TbrbCi66kmZD97-65" target="zsU3p8TbrbCi66kmZD97-47">
          <mxGeometry width="50" height="50" relative="1" as="geometry">
            <mxPoint x="390" y="968" as="sourcePoint" />
            <mxPoint x="450" y="840" as="targetPoint" />
          </mxGeometry>
        </mxCell>
        <mxCell id="zsU3p8TbrbCi66kmZD97-75" value="" style="endArrow=classic;startArrow=classic;html=1;rounded=0;entryX=0.5;entryY=1;entryDx=0;entryDy=0;" edge="1" parent="1" target="zsU3p8TbrbCi66kmZD97-47">
          <mxGeometry width="50" height="50" relative="1" as="geometry">
            <mxPoint x="240" y="730" as="sourcePoint" />
            <mxPoint x="420" y="860" as="targetPoint" />
          </mxGeometry>
        </mxCell>
        <mxCell id="zsU3p8TbrbCi66kmZD97-76" value="" style="endArrow=classic;startArrow=classic;html=1;rounded=0;exitX=0.5;exitY=0;exitDx=0;exitDy=0;entryX=0.429;entryY=1;entryDx=0;entryDy=0;entryPerimeter=0;" edge="1" parent="1">
          <mxGeometry width="50" height="50" relative="1" as="geometry">
            <mxPoint x="174.5" y="520" as="sourcePoint" />
            <mxPoint x="174.5" y="470" as="targetPoint" />
          </mxGeometry>
        </mxCell>
        <mxCell id="zsU3p8TbrbCi66kmZD97-77" value="" style="endArrow=classic;startArrow=classic;html=1;rounded=0;exitX=0.5;exitY=0;exitDx=0;exitDy=0;entryX=0.429;entryY=1;entryDx=0;entryDy=0;entryPerimeter=0;" edge="1" parent="1">
          <mxGeometry width="50" height="50" relative="1" as="geometry">
            <mxPoint x="294.5" y="520" as="sourcePoint" />
            <mxPoint x="294.5" y="470" as="targetPoint" />
          </mxGeometry>
        </mxCell>
        <mxCell id="zsU3p8TbrbCi66kmZD97-78" value="" style="endArrow=classic;startArrow=classic;html=1;rounded=0;exitX=0.5;exitY=0;exitDx=0;exitDy=0;entryX=0.429;entryY=1;entryDx=0;entryDy=0;entryPerimeter=0;" edge="1" parent="1">
          <mxGeometry width="50" height="50" relative="1" as="geometry">
            <mxPoint x="409.5" y="520" as="sourcePoint" />
            <mxPoint x="409.5" y="470" as="targetPoint" />
          </mxGeometry>
        </mxCell>
        <mxCell id="zsU3p8TbrbCi66kmZD97-79" value="" style="endArrow=classic;startArrow=classic;html=1;rounded=0;exitX=0.5;exitY=0;exitDx=0;exitDy=0;entryX=0.429;entryY=1;entryDx=0;entryDy=0;entryPerimeter=0;" edge="1" parent="1">
          <mxGeometry width="50" height="50" relative="1" as="geometry">
            <mxPoint x="520" y="520" as="sourcePoint" />
            <mxPoint x="520" y="470" as="targetPoint" />
          </mxGeometry>
        </mxCell>
        <mxCell id="zsU3p8TbrbCi66kmZD97-80" value="" style="endArrow=classic;startArrow=classic;html=1;rounded=0;exitX=0.5;exitY=0;exitDx=0;exitDy=0;entryX=0.429;entryY=1;entryDx=0;entryDy=0;entryPerimeter=0;" edge="1" parent="1">
          <mxGeometry width="50" height="50" relative="1" as="geometry">
            <mxPoint x="634.5" y="520" as="sourcePoint" />
            <mxPoint x="634.5" y="470" as="targetPoint" />
          </mxGeometry>
        </mxCell>
        <mxCell id="zsU3p8TbrbCi66kmZD97-81" value="VCSAは3台で一つのHA構成。&lt;br&gt;また、ホストのリソースはクラスタ機能により一元化されている" style="text;html=1;align=center;verticalAlign=middle;whiteSpace=wrap;rounded=0;" vertex="1" parent="1">
          <mxGeometry x="10" y="530" width="100" height="100" as="geometry" />
        </mxCell>
        <mxCell id="zsU3p8TbrbCi66kmZD97-82" value="仮想マシン構成ファイルやログ等を格納するストレージは共通領域&lt;div&gt;&lt;br&gt;&lt;/div&gt;" style="text;html=1;align=center;verticalAlign=middle;whiteSpace=wrap;rounded=0;" vertex="1" parent="1">
          <mxGeometry x="10" y="750" width="100" height="120" as="geometry" />
        </mxCell>
        <mxCell id="zsU3p8TbrbCi66kmZD97-86" value="※実際はセグメントの数だけL2スイッチがあります。ここでは簡略化し、セグメントは一つとし&lt;span style=&quot;background-color: transparent; color: light-dark(rgb(0, 0, 0), rgb(255, 255, 255));&quot;&gt;ています。&lt;/span&gt;" style="text;html=1;align=center;verticalAlign=middle;whiteSpace=wrap;rounded=0;" vertex="1" parent="1">
          <mxGeometry x="490" y="90" width="130" height="90" as="geometry" />
        </mxCell>
        <mxCell id="zsU3p8TbrbCi66kmZD97-87" value="セグメントに対して用途ごとにポートグループを分けている(VLANでの分離)" style="text;html=1;align=center;verticalAlign=middle;whiteSpace=wrap;rounded=0;" vertex="1" parent="1">
          <mxGeometry x="10" y="400" width="80" height="70" as="geometry" />
        </mxCell>
        <mxCell id="zsU3p8TbrbCi66kmZD97-88" value="作成者:　Sungho　　2025/07/0&lt;span style=&quot;background-color: transparent; color: light-dark(rgb(0, 0, 0), rgb(255, 255, 255));&quot;&gt;7&lt;/span&gt;" style="text;html=1;align=center;verticalAlign=middle;whiteSpace=wrap;rounded=0;" vertex="1" parent="1">
          <mxGeometry x="525" y="1030" width="255" height="30" as="geometry" />
        </mxCell>
      </root>
    </mxGraphModel>
  </diagram>
</mxfile>
